<svg t="1572776025677" class="icon" viewBox="0 0 1024 1024" version="1.1" xmlns="http://www.w3.org/2000/svg" p-id="5942" width="22" height="22"><path d="M 953.14 518.81 c -9.422 0 -18.74 0.46 -27.956 1.433 l -1.126 -420.352 c 0 -22.118 -16.692 -43.93 -39.015 -43.93 H 231.63 c 5.53 12.237 13.619 26.522 13.619 40.807 v 830.464 c 0 22.118 20.02 37.018 42.342 37.018 c 1.23 0 2.458 0.204 3.636 0.358 c 1.228 -0.154 2.406 -0.358 3.635 -0.358 c 22.323 0 45.67 -14.9 45.67 -37.018 V 818.33 c 0 -16.128 10.957 -27.239 27.239 -27.239 h 313.139 c 0 18.637 1.894 36.864 5.478 54.477 H 395.008 l -0.768 78.54 c 0 14.286 -7.322 31.642 -12.851 43.93 h 365.107 c 18.278 21.35 39.834 39.68 63.846 54.528 H 294.861 c -1.229 0 -2.407 -0.204 -3.635 -0.358 c -1.23 0.154 -2.407 0.358 -3.636 0.358 c -54.784 0 -99.328 -44.185 -99.328 -98.457 V 235.264 l -117.76 0.102 h -0.05 c -7.783 0 -15.31 -3.072 -20.788 -8.55 a 28.892 28.892 0 0 1 -8.653 -20.634 V 100.454 c 0 -53.452 42.65 -97.69 96.307 -99.072 h 746.394 c 54.784 0 99.328 44.186 99.328 98.458 V 520.5 c -9.882 -1.076 -19.814 -1.69 -29.9 -1.69 Z M 190.77 96.768 c 0 -22.118 -20.685 -37.018 -43.008 -37.018 h -1.331 s -50.944 -6.963 -50.944 37.018 v 81.664 h 95.283 V 96.768 Z m 136.141 449.28 V 505.19 h 326.707 v 40.858 H 326.912 Z m 0 -340.378 h 326.707 v 40.858 H 326.912 V 205.67 Z m 517.325 190.618 H 326.912 V 355.43 h 517.325 v 40.858 Z" fill="#8a8a8a" p-id="5943"></path></svg>