<svg t="1572771894543" class="icon" viewBox="0 0 1024 1024" version="1.1" xmlns="http://www.w3.org/2000/svg" p-id="2839" width="22" height="22"><path  d="M181.11535244 282.37218418h81.09696358V199.07149854H181.11535244z m0 167.04211553h81.09696358V366.11361406H181.11535244z m0 167.04211552h81.09696358v-83.30068564H181.11535244z m0 167.04211553h81.09696358v-83.74142988H181.11535244z m167.04211553-520.0783541H686.64914317a25.56317373 25.56317373 0 1 0-1e-8-51.5670917H348.15746797a25.56317373 25.56317373 0 1 0 0 51.5670917z m0 167.04211553H686.64914317a25.56317373 25.56317373 0 1 0-1e-8-51.5670917H348.15746797a25.56317373 25.56317373 0 1 0 0 51.5670917z m598.53085224 92.99706152L862.94689033 438.83643448a26.44466221 26.44466221 0 0 0-36.14103809 0l-7.93339892 6.17042196V87.56317373a25.56317373 25.56317373 0 0 0-25.56317285-25.56317373H95.17020049A25.56317373 25.56317373 0 0 0 69.60702763 87.56317373v788.05093008a25.56317373 25.56317373 0 0 0 25.56317286 23.8001959h367.14005948l53.33006776 53.33006865a25.56317373 25.56317373 0 0 0 36.14103897 0L605.55217959 899.41429971h187.75710088a25.56317373 25.56317373 0 0 0 25.56317285-25.56317373V687.85700293l127.81586689-127.81586689a25.56317373 25.56317373 0 0 0 0-36.58178232z m-825.51420175 326.15083213V113.56709082h646.57198828v383.00685645l-60.38197822 60.38197822A25.56317373 25.56317373 0 0 0 686.64914317 546.81880537H348.15746797a25.56317373 25.56317373 0 1 0 0 51.56709082h319.09892256l-129.57884385 129.57884385-101.37120468-102.25269317a25.56317373 25.56317373 0 0 0-36.14103809 0l-88.14887402 88.14887402a25.56317373 25.56317373 0 0 0 0 36.14103809l99.16748261 99.16748262z m646.57198828 0h-110.62683633l110.62683633-110.62683633zM818.87245332 615.13418252l-51.56709082 51.56709082-183.34965761 183.34965674L534.1515919 899.41429971 483.90673378 849.61018584l-117.67874677-117.23800166L418.23582295 679.04211552l100.93046045 100.93046046a25.56317373 25.56317373 0 0 0 36.14103808-1e-8l211.99804102-211.99804101L818.87245332 517.72967685l24.68168438-24.68168437 48.92262538 48.48188028z"  fill="#8a8a8a"  p-id="2840"></path></svg>