<svg t="1572775653613" class="icon" viewBox="0 0 1058 1024" version="1.1" xmlns="http://www.w3.org/2000/svg" p-id="4299" width="22" height="22"><path d="M0 395.7248V362.666667h1058.133333v33.058133c0 61.559467-45.431467 112.827733-102.4 127.624533V955.733333h69.3248c18.346667 0 33.0752 16.930133 33.0752 35.191467C1058.133333 1009.2032 1043.4048 1024 1025.058133 1024H33.0752A33.109333 33.109333 0 0 1 0 990.9248C0 972.663467 14.848 955.733333 33.0752 955.733333H102.4V523.349333c-56.951467-14.7968-102.4-66.065067-102.4-127.624533z m661.333333 132.266667a132.317867 132.317867 0 0 1-132.266666-132.266667c0 73.045333-41.130667 132.266667-102.4 132.266667V955.733333h460.8V523.349333c-56.968533-14.7968-93.866667-66.065067-93.866667-127.624533 0 73.045333-59.153067 132.266667-132.266667 132.266667zM375.466667 529.066667c-59.528533-0.4096-110.933333-71.7824-110.933334-133.341867 0 61.559467-36.898133 112.827733-93.866666 127.624533V955.733333h204.8V529.066667zM921.6 68.266667l136.533333 261.341866H0L136.533333 68.266667h785.066667z m-106.666667 37.8368a25.6 25.6 0 0 0-9.3696 34.9696l68.266667 118.237866a25.6 25.6 0 1 0 44.3392-25.6l-68.266667-118.237866a25.6 25.6 0 0 0-34.9696-9.3696z m-159.402666 1.655466a25.6 25.6 0 0 0-15.3088 32.802134l43.195733 118.6816a25.6 25.6 0 0 0 48.128-17.5104L688.315733 123.050667a25.6 25.6 0 0 0-32.802133-15.291734zM520.533333 102.4A25.6 25.6 0 0 0 494.933333 128v119.466667a25.6 25.6 0 0 0 51.2 0v-119.466667A25.6 25.6 0 0 0 520.533333 102.4z m-128.5632 5.358933a25.6 25.6 0 0 0-32.8192 15.291734l-43.195733 118.6816a25.6 25.6 0 0 0 48.128 17.5104l43.178667-118.6816a25.6 25.6 0 0 0-15.291734-32.802134z m-148.770133-1.655466a25.6 25.6 0 0 0-34.9696 9.3696l-68.266667 118.237866a25.6 25.6 0 1 0 44.3392 25.6l68.266667-118.237866a25.6 25.6 0 0 0-9.3696-34.9696z m31.470933 650.530133v-86.033067C263.748267 664.029867 256 652.629333 256 638.941867a37.376 37.376 0 0 1 37.3248-37.3248c20.718933 0 37.341867 16.708267 37.341867 37.3248 0 13.704533-7.662933 25.088-18.653867 31.658666v86.016c10.990933 6.570667 18.653867 17.937067 18.653867 31.6416a37.256533 37.256533 0 0 1-37.341867 37.341867A37.376 37.376 0 0 1 256 788.258133c0-13.704533 7.7312-25.088 18.670933-31.624533zM136.533333 0h785.066667v68.266667H136.533333V0z m433.493334 699.733333L529.066667 658.773333l95.573333-95.573333 40.96 40.96-95.573333 95.573333z m19.729066 119.466667L546.133333 775.5776 741.444267 580.266667 785.066667 623.889067 589.755733 819.2zM761.173333 699.733333l40.96 40.96-95.573333 95.573334-40.96-40.96 95.573333-95.573334z"  fill="#8a8a8a" p-id="4300"></path></svg>