<svg t="1572878260289" class="icon" viewBox="0 0 1024 1024" version="1.1" xmlns="http://www.w3.org/2000/svg" p-id="9590" width="22" height="22"><path d="M742.9 568.4m-40.9 0a40.9 40.9 0 1 0 81.8 0 40.9 40.9 0 1 0-81.8 0Z" fill="#242424" p-id="9591"></path><path d="M713.5 658.5c-38.7 0-70.4-31.7-70.4-70.4v-45c0-38.7 31.7-70.4 70.4-70.4h255.7V327.2c0-38.7-31.7-70.4-70.4-70.4H128.5c-38.7 0-70.4 31.7-70.4 70.4v527.6c0 38.7 31.7 70.4 70.4 70.4h770.3c38.7 0 70.4-31.7 70.4-70.4V658.5H713.5zM839.5 212.1L765.2 77.5c-18.7-33.9-61.7-46.3-95.6-27.6L376.1 212.1h463.4z" fill="#242424" p-id="9592"></path></svg>